<svg id="visual" viewBox="0 0 1920 1080" width="1920" height="1080" xmlns="http://www.w3.org/2000/svg" xmlns:xlink="http://www.w3.org/1999/xlink" version="1.1"><g><g transform="translate(1740 375)"><path d="M165.8 -63.2C187.3 12.3 158.1 94.9 100.3 136.5C42.5 178.1 -43.9 178.8 -105 136.4C-166 94 -201.6 8.4 -179.9 -67.4C-158.2 -143.2 -79.1 -209.3 -3.5 -208.2C72.2 -207.1 144.3 -138.7 165.8 -63.2Z" stroke="#f9004d" fill="none" stroke-width="20"></path></g><g transform="translate(108 48)"><path d="M115.9 -35.5C133.4 16.1 119.1 80.2 77.6 111.4C36.1 142.7 -32.6 141.1 -74.9 109C-117.1 76.9 -132.9 14.3 -116 -36.5C-99.1 -87.3 -49.6 -126.3 -0.2 -126.3C49.2 -126.2 98.4 -87.1 115.9 -35.5Z" stroke="#f9004d" fill="none" stroke-width="20"></path></g><g transform="translate(1457 993)"><path d="M198.5 -60C224.5 15.4 190.1 114.9 122 163.3C53.9 211.7 -47.9 208.9 -117.1 159.1C-186.3 109.3 -222.9 12.5 -197.9 -61.5C-172.9 -135.6 -86.5 -186.9 -0.1 -186.9C86.3 -186.8 172.6 -135.5 198.5 -60Z" stroke="#f9004d" fill="none" stroke-width="20"></path></g></g></svg>