<svg id="visual" viewBox="0 0 1920 1080" width="1920" height="1080" xmlns="http://www.w3.org/2000/svg" xmlns:xlink="http://www.w3.org/1999/xlink" version="1.1"><rect x="0" y="0" width="1920" height="1080" fill="#101010"></rect><path d="M0 653L45.7 674.7C91.3 696.3 182.7 739.7 274.2 748.2C365.7 756.7 457.3 730.3 548.8 731C640.3 731.7 731.7 759.3 823 768.8C914.3 778.3 1005.7 769.7 1097 765.7C1188.3 761.7 1279.7 762.3 1371.2 741.3C1462.7 720.3 1554.3 677.7 1645.8 668.2C1737.3 658.7 1828.7 682.3 1874.3 694.2L1920 706L1920 1081L1874.3 1081C1828.7 1081 1737.3 1081 1645.8 1081C1554.3 1081 1462.7 1081 1371.2 1081C1279.7 1081 1188.3 1081 1097 1081C1005.7 1081 914.3 1081 823 1081C731.7 1081 640.3 1081 548.8 1081C457.3 1081 365.7 1081 274.2 1081C182.7 1081 91.3 1081 45.7 1081L0 1081Z" fill="#fa7268"></path><path d="M0 713L45.7 714.5C91.3 716 182.7 719 274.2 736.2C365.7 753.3 457.3 784.7 548.8 791C640.3 797.3 731.7 778.7 823 785C914.3 791.3 1005.7 822.7 1097 830.2C1188.3 837.7 1279.7 821.3 1371.2 809C1462.7 796.7 1554.3 788.3 1645.8 779.8C1737.3 771.3 1828.7 762.7 1874.3 758.3L1920 754L1920 1081L1874.3 1081C1828.7 1081 1737.3 1081 1645.8 1081C1554.3 1081 1462.7 1081 1371.2 1081C1279.7 1081 1188.3 1081 1097 1081C1005.7 1081 914.3 1081 823 1081C731.7 1081 640.3 1081 548.8 1081C457.3 1081 365.7 1081 274.2 1081C182.7 1081 91.3 1081 45.7 1081L0 1081Z" fill="#ef5f67"></path><path d="M0 835L45.7 831C91.3 827 182.7 819 274.2 828C365.7 837 457.3 863 548.8 870C640.3 877 731.7 865 823 866.8C914.3 868.7 1005.7 884.3 1097 895.7C1188.3 907 1279.7 914 1371.2 904C1462.7 894 1554.3 867 1645.8 858.7C1737.3 850.3 1828.7 860.7 1874.3 865.8L1920 871L1920 1081L1874.3 1081C1828.7 1081 1737.3 1081 1645.8 1081C1554.3 1081 1462.7 1081 1371.2 1081C1279.7 1081 1188.3 1081 1097 1081C1005.7 1081 914.3 1081 823 1081C731.7 1081 640.3 1081 548.8 1081C457.3 1081 365.7 1081 274.2 1081C182.7 1081 91.3 1081 45.7 1081L0 1081Z" fill="#e34c67"></path><path d="M0 969L45.7 953.3C91.3 937.7 182.7 906.3 274.2 898.5C365.7 890.7 457.3 906.3 548.8 914.2C640.3 922 731.7 922 823 925.8C914.3 929.7 1005.7 937.3 1097 933C1188.3 928.7 1279.7 912.3 1371.2 912.3C1462.7 912.3 1554.3 928.7 1645.8 938.8C1737.3 949 1828.7 953 1874.3 955L1920 957L1920 1081L1874.3 1081C1828.7 1081 1737.3 1081 1645.8 1081C1554.3 1081 1462.7 1081 1371.2 1081C1279.7 1081 1188.3 1081 1097 1081C1005.7 1081 914.3 1081 823 1081C731.7 1081 640.3 1081 548.8 1081C457.3 1081 365.7 1081 274.2 1081C182.7 1081 91.3 1081 45.7 1081L0 1081Z" fill="#d53867"></path><path d="M0 1021L45.7 1015C91.3 1009 182.7 997 274.2 993.3C365.7 989.7 457.3 994.3 548.8 992.5C640.3 990.7 731.7 982.3 823 973.3C914.3 964.3 1005.7 954.7 1097 959.8C1188.3 965 1279.7 985 1371.2 985.5C1462.7 986 1554.3 967 1645.8 957.3C1737.3 947.7 1828.7 947.3 1874.3 947.2L1920 947L1920 1081L1874.3 1081C1828.7 1081 1737.3 1081 1645.8 1081C1554.3 1081 1462.7 1081 1371.2 1081C1279.7 1081 1188.3 1081 1097 1081C1005.7 1081 914.3 1081 823 1081C731.7 1081 640.3 1081 548.8 1081C457.3 1081 365.7 1081 274.2 1081C182.7 1081 91.3 1081 45.7 1081L0 1081Z" fill="#c62368"></path></svg>